<svg width="16" height="16" viewBox="0 0 16 16" fill="none" xmlns="http://www.w3.org/2000/svg">
<path fill-rule="evenodd" clip-rule="evenodd" d="M4.84613 15.021C3.63287 15.0219 2.53871 14.2914 2.07431 13.1705C1.60991 12.0497 1.86681 10.7594 2.72513 9.90194L6.96723 5.66044C7.3596 5.28147 7.98331 5.28689 8.36904 5.67262C8.75478 6.05836 8.7602 6.68206 8.38123 7.07444L4.13913 11.316C3.75146 11.707 3.75275 12.3378 4.14201 12.7272C4.53128 13.1165 5.16205 13.118 5.55313 12.7304L11.2093 7.07434C11.772 6.51187 12.0881 5.74888 12.0881 4.95329C12.0881 4.1577 11.772 3.39471 11.2093 2.83224C10.0225 1.69851 8.15401 1.69851 6.96723 2.83224L2.72513 7.07394C2.47489 7.33742 2.10143 7.44443 1.74963 7.35344C1.39784 7.26245 1.12308 6.9878 1.03197 6.63603C0.94086 6.28427 1.04773 5.91077 1.31113 5.66044L5.55313 1.41784C7.53067 -0.472614 10.6456 -0.472614 12.6231 1.41784C13.561 2.35522 14.0879 3.62686 14.0879 4.95284C14.0879 6.27882 13.561 7.55046 12.6231 8.48784L6.96723 14.144C6.40483 14.7066 5.64161 15.0222 4.84613 15.021Z" fill="#FF4F46"/>
</svg>
