<svg width="24" height="42" viewBox="0 0 24 42" fill="none" xmlns="http://www.w3.org/2000/svg">
<path d="M12 5L12.53 4.47C12.3894 4.32955 12.1988 4.25066 12 4.25066C11.8012 4.25066 11.6106 4.32955 11.47 4.47L12 5ZM12 14.5L11.47 15.03C11.6106 15.1705 11.8012 15.2493 12 15.2493C12.1988 15.2493 12.3894 15.1705 12.53 15.03L12 14.5ZM9.47 6.47C9.33752 6.61217 9.2654 6.80022 9.26882 6.99452C9.27225 7.18882 9.35097 7.37421 9.48838 7.51162C9.62579 7.64903 9.81118 7.72775 10.0055 7.73117C10.1998 7.7346 10.3878 7.66248 10.53 7.53L9.47 6.47ZM13.47 7.53C13.5387 7.60369 13.6215 7.66279 13.7135 7.70378C13.8055 7.74477 13.9048 7.76681 14.0055 7.76859C14.1062 7.77037 14.2062 7.75184 14.2996 7.71412C14.393 7.6764 14.4778 7.62026 14.549 7.54904C14.6203 7.47782 14.6764 7.39299 14.7141 7.2996C14.7518 7.20621 14.7704 7.10618 14.7686 7.00548C14.7668 6.90477 14.7448 6.80546 14.7038 6.71346C14.6628 6.62146 14.6037 6.53866 14.53 6.47L13.47 7.53ZM10.53 11.97C10.4613 11.8963 10.3785 11.8372 10.2865 11.7962C10.1945 11.7552 10.0952 11.7332 9.99452 11.7314C9.89382 11.7296 9.79379 11.7482 9.7004 11.7859C9.60701 11.8236 9.52218 11.8797 9.45096 11.951C9.37974 12.0222 9.3236 12.107 9.28588 12.2004C9.24816 12.2938 9.22963 12.3938 9.23141 12.4945C9.23318 12.5952 9.25523 12.6945 9.29622 12.7865C9.33721 12.8785 9.39631 12.9613 9.47 13.03L10.53 11.97ZM14.53 13.03C14.6037 12.9613 14.6628 12.8785 14.7038 12.7865C14.7448 12.6945 14.7668 12.5952 14.7686 12.4945C14.7704 12.3938 14.7518 12.2938 14.7141 12.2004C14.6764 12.107 14.6203 12.0222 14.549 11.951C14.4778 11.8797 14.393 11.8236 14.2996 11.7859C14.2062 11.7482 14.1062 11.7296 14.0055 11.7314C13.9048 11.7332 13.8055 11.7552 13.7135 11.7962C13.6215 11.8372 13.5387 11.8963 13.47 11.97L14.53 13.03ZM3.25 10L3.25 16.75H4.75V10H3.25ZM20.75 16.75V10H19.25V16.75H20.75ZM11.25 5V14.5H12.75V5H11.25ZM11.47 4.47L9.47 6.47L10.53 7.53L12.53 5.53L11.47 4.47ZM11.47 5.53L13.47 7.53L14.53 6.47L12.53 4.47L11.47 5.53ZM12.53 13.97L10.53 11.97L9.47 13.03L11.47 15.03L12.53 13.97ZM12.53 15.03L14.53 13.03L13.47 11.97L11.47 13.97L12.53 15.03ZM20.75 10C20.75 7.67936 19.8281 5.45376 18.1872 3.81282C16.5462 2.17187 14.3206 1.25 12 1.25V2.75C13.9228 2.75 15.7669 3.51384 17.1265 4.87348C18.4862 6.23311 19.25 8.07718 19.25 10H20.75ZM12 25.5C13.1491 25.5 14.2869 25.2737 15.3485 24.8339C16.4101 24.3942 17.3747 23.7497 18.1872 22.9372C18.9997 22.1247 19.6442 21.1601 20.0839 20.0985C20.5237 19.0369 20.75 17.8991 20.75 16.75H19.25C19.25 18.6728 18.4862 20.5169 17.1265 21.8765C15.7669 23.2362 13.9228 24 12 24V25.5ZM3.25 16.75C3.25 19.0706 4.17187 21.2962 5.81282 22.9372C7.45376 24.5781 9.67936 25.5 12 25.5V24C10.0772 24 8.23311 23.2362 6.87348 21.8765C5.51384 20.5169 4.75 18.6728 4.75 16.75H3.25ZM4.75 10C4.75 8.07718 5.51384 6.23311 6.87348 4.87348C8.23311 3.51384 10.0772 2.75 12 2.75V1.25C9.67936 1.25 7.45376 2.17187 5.81282 3.81282C4.17187 5.45376 3.25 7.67936 3.25 10H4.75Z" fill="#6CA9FF"/>
<rect x="11" y="29" width="2" height="4" fill="#6CA9FF"/>
<rect x="11" y="35" width="2" height="3" fill="#6CA9FF"/>
<rect x="11" y="40" width="2" height="2" fill="#6CA9FF"/>
</svg>
