<svg width="30" height="30" viewBox="0 0 30 30" fill="none" xmlns="http://www.w3.org/2000/svg">
<rect width="30" height="30" fill="#D8D8D8" fill-opacity="0.01"/>
<mask id="path-2-inside-1" fill="white">
<path fill-rule="evenodd" clip-rule="evenodd" d="M8.08406 6.66982C7.69354 6.27929 7.06037 6.27929 6.66985 6.66982C6.27932 7.06034 6.27932 7.69351 6.66985 8.08403L13.683 15.0971L6.66985 22.1102C6.27932 22.5008 6.27932 23.1339 6.66985 23.5245C7.06037 23.915 7.69354 23.915 8.08406 23.5245L15.0972 16.5113L22.1103 23.5245C22.5008 23.915 23.134 23.915 23.5245 23.5245C23.915 23.1339 23.915 22.5008 23.5245 22.1102L16.5114 15.0971L23.5245 8.08403C23.915 7.69351 23.915 7.06034 23.5245 6.66982C23.134 6.27929 22.5008 6.27929 22.1103 6.66982L15.0972 13.6829L8.08406 6.66982Z"/>
</mask>
<path d="M8.08406 6.66982L6.66985 8.08403L6.66985 8.08403L8.08406 6.66982ZM6.66985 8.08403L8.08406 6.66982L8.08406 6.66982L6.66985 8.08403ZM13.683 15.0971L15.0972 16.5113L16.5114 15.0971L15.0972 13.6829L13.683 15.0971ZM6.66985 22.1102L5.25563 20.696L5.25563 20.696L6.66985 22.1102ZM8.08406 23.5245L9.49827 24.9387L9.49827 24.9387L8.08406 23.5245ZM15.0972 16.5113L16.5114 15.0971L15.0972 13.6829L13.683 15.0971L15.0972 16.5113ZM22.1103 23.5245L20.6961 24.9387L20.6961 24.9387L22.1103 23.5245ZM23.5245 22.1102L24.9387 20.696L24.9387 20.696L23.5245 22.1102ZM16.5114 15.0971L15.0972 13.6829L13.683 15.0971L15.0972 16.5113L16.5114 15.0971ZM23.5245 8.08403L24.9387 9.49824L24.9387 9.49824L23.5245 8.08403ZM22.1103 6.66982L20.6961 5.2556L20.6961 5.2556L22.1103 6.66982ZM15.0972 13.6829L13.683 15.0971L15.0972 16.5113L16.5114 15.0971L15.0972 13.6829ZM8.08406 8.08403C7.69354 8.47455 7.06037 8.47455 6.66985 8.08403L9.49827 5.2556C8.3267 4.08403 6.42721 4.08403 5.25563 5.2556L8.08406 8.08403ZM8.08406 6.66982C8.47458 7.06034 8.47458 7.69351 8.08406 8.08403L5.25563 5.2556C4.08406 6.42718 4.08406 8.32667 5.25563 9.49824L8.08406 6.66982ZM15.0972 13.6829L8.08406 6.66982L5.25563 9.49824L12.2687 16.5113L15.0972 13.6829ZM8.08406 23.5245L15.0972 16.5113L12.2687 13.6829L5.25563 20.696L8.08406 23.5245ZM8.08406 22.1102C8.47459 22.5008 8.47458 23.1339 8.08406 23.5245L5.25563 20.696C4.08406 21.8676 4.08406 23.7671 5.25563 24.9387L8.08406 22.1102ZM6.66985 22.1102C7.06037 21.7197 7.69354 21.7197 8.08406 22.1102L5.25563 24.9387C6.42721 26.1102 8.3267 26.1102 9.49827 24.9387L6.66985 22.1102ZM13.683 15.0971L6.66985 22.1102L9.49827 24.9387L16.5114 17.9256L13.683 15.0971ZM23.5245 22.1102L16.5114 15.0971L13.683 17.9256L20.6961 24.9387L23.5245 22.1102ZM22.1103 22.1102C22.5008 21.7197 23.134 21.7197 23.5245 22.1102L20.6961 24.9387C21.8676 26.1102 23.7671 26.1102 24.9387 24.9387L22.1103 22.1102ZM22.1103 23.5245C21.7197 23.1339 21.7197 22.5008 22.1103 22.1102L24.9387 24.9387C26.1103 23.7671 26.1103 21.8676 24.9387 20.696L22.1103 23.5245ZM15.0972 16.5113L22.1103 23.5245L24.9387 20.696L17.9256 13.6829L15.0972 16.5113ZM22.1103 6.66982L15.0972 13.6829L17.9256 16.5113L24.9387 9.49824L22.1103 6.66982ZM22.1103 8.08403C21.7197 7.6935 21.7197 7.06034 22.1103 6.66982L24.9387 9.49824C26.1103 8.32667 26.1103 6.42718 24.9387 5.2556L22.1103 8.08403ZM23.5245 8.08403C23.134 8.47455 22.5008 8.47455 22.1103 8.08403L24.9387 5.2556C23.7671 4.08403 21.8676 4.08403 20.6961 5.2556L23.5245 8.08403ZM16.5114 15.0971L23.5245 8.08403L20.6961 5.2556L13.683 12.2687L16.5114 15.0971ZM6.66985 8.08403L13.683 15.0971L16.5114 12.2687L9.49827 5.2556L6.66985 8.08403Z" fill="#252554" mask="url(#path-2-inside-1)"/>
</svg>
