<svg width="50" height="28" viewBox="0 0 50 28" fill="none" xmlns="http://www.w3.org/2000/svg">
<path d="M16.1812 10.5189L6.33882 8.93744L8.5498 10.6901L2.06404 11.1282L8.40217 13.0995L0.000243863 15.2902L9.72867 15.5093L5.15951 18.7947L17.9834 16.6044L16.1812 10.5189Z" fill="#FFA121"/>
<path opacity="0.4" d="M16.3728 11.4071L10.0912 10.3146L11.5021 11.5251L7.36325 11.8277L11.4083 13.1893L6.04617 14.7024L12.2546 14.8535L9.33864 17.1229L17.5225 15.6103L16.3728 11.4071Z" fill="white"/>
<path d="M26.2615 27.551C25.9068 27.4086 25.5926 27.1816 25.3467 26.8898C25.1007 26.598 24.9305 26.2505 24.8511 25.8779L23.3101 18.6494L27.7334 18.5748L26.2615 27.551Z" fill="#851712"/>
<path d="M26.262 27.5509L26.262 19.6604L37.5552 19.6604C28.3334 22.9043 30.2828 27.5509 26.262 27.5509Z" fill="#FF4F46"/>
<path d="M26.2615 -6.43384e-08C25.9067 0.142436 25.5925 0.369568 25.3466 0.661405C25.1006 0.953242 24.9305 1.30083 24.8511 1.67358L23.3101 8.90161L27.7334 8.97626L26.2615 -6.43384e-08Z" fill="#851712"/>
<path d="M26.262 -4.93642e-07L26.262 7.88914L37.5552 7.88914C28.3334 4.6448 30.2828 -3.17888e-07 26.262 -4.93642e-07Z" fill="#FF4F46"/>
<path d="M21.0628 19.0874C28.8351 21.7931 37.4313 21.1051 44.5848 17.0441C44.7158 16.9699 44.8464 16.8945 44.9766 16.8179L44.9766 10.694C44.8464 10.6174 44.7158 10.542 44.5848 10.4678C37.4313 6.40681 28.8337 5.71888 21.0628 8.42458L18.8015 9.21175L15.1869 8.11749L15.1869 19.3945L18.8015 18.3002L21.0628 19.0874Z" fill="#6CA9FF"/>
<path d="M44.9776 10.6942L44.9776 13.7548L44.9776 16.8181L50 13.7561L44.9776 10.6942Z" fill="#FF4F46"/>
<path d="M18.7978 9.21226L18.8027 18.2976L15.1872 19.3945L15.1872 8.11755L18.7978 9.21226Z" fill="#FF4F46"/>
<path d="M12.8141 13.756C12.8141 13.5734 12.887 13.3984 13.0166 13.2693C13.1462 13.1402 13.3219 13.0676 13.5052 13.0676L25.3441 13.0676C25.5273 13.0677 25.703 13.1403 25.8326 13.2694C25.9622 13.3985 26.035 13.5735 26.0352 13.756C26.035 13.9386 25.9622 14.1136 25.8326 14.2427C25.703 14.3717 25.5273 14.4443 25.3441 14.4444L13.5052 14.4444C13.3219 14.4444 13.1462 14.3719 13.0166 14.2428C12.887 14.1137 12.8141 13.9386 12.8141 13.756Z" fill="#1B1B43"/>
<path d="M35.5801 15.994C36.8208 17.2299 38.8325 17.2299 40.0732 15.994C41.314 14.758 41.314 12.7542 40.0732 11.5183C38.8325 10.2824 36.8208 10.2824 35.5801 11.5183C34.3393 12.7542 34.3393 14.758 35.5801 15.994Z" fill="white"/>
<path d="M36.2355 15.3406C37.114 16.2157 38.5383 16.2157 39.4169 15.3406C40.2954 14.4655 40.2954 13.0467 39.4169 12.1716C38.5383 11.2965 37.114 11.2965 36.2355 12.1716C35.357 13.0467 35.357 14.4655 36.2355 15.3406Z" fill="#B1D4FC"/>
<path d="M38.4731 13.3882C38.6948 13.4404 38.9169 13.3036 38.9692 13.0828C39.0216 12.862 38.8843 12.6407 38.6626 12.5886C38.4409 12.5365 38.2188 12.6733 38.1665 12.8941C38.1142 13.1149 38.2515 13.3361 38.4731 13.3882Z" fill="white"/>
<path d="M29.3266 13.7561L29.3266 13.7002L29.5124 13.7069L29.5124 13.7561C29.5123 13.8559 29.5219 13.9554 29.5411 14.0533L29.3616 14.0891C29.3392 13.9795 29.3274 13.868 29.3266 13.7561ZM29.3845 13.3149C29.4183 13.1889 29.4667 13.0673 29.5286 12.9524L29.6919 13.0395C29.6369 13.142 29.594 13.2504 29.564 13.3627L29.3845 13.3149ZM29.4792 14.4606L29.6484 14.3841C29.6966 14.49 29.7568 14.5901 29.8279 14.6823L29.6807 14.7945C29.6009 14.6912 29.5333 14.5792 29.4792 14.4606ZM29.7512 12.6319C29.8374 12.5338 29.9347 12.4459 30.0411 12.3699L30.1492 12.5197C30.0545 12.5876 29.9677 12.6661 29.8907 12.7534L29.7512 12.6319ZM29.9526 15.0747L30.0707 14.9317C30.1607 15.0056 30.2591 15.0689 30.3637 15.1203L30.2816 15.2862C30.1642 15.2284 30.0538 15.1575 29.9526 15.0747ZM30.383 12.1799C30.504 12.1301 30.6303 12.0943 30.7595 12.0731L30.7896 12.2555C30.6748 12.2752 30.5626 12.3079 30.4552 12.3529L30.383 12.1799ZM30.6522 15.4176L30.694 15.2388C30.8077 15.2651 30.9241 15.2782 31.0409 15.2781L31.0409 15.4632C30.9094 15.4627 30.7784 15.4474 30.6505 15.4176L30.6522 15.4176ZM31.14 12.2385L31.1517 12.0539C31.2824 12.0623 31.4118 12.0855 31.5372 12.1232L31.4833 12.302C31.3711 12.2677 31.2553 12.2464 31.1382 12.2385L31.14 12.2385ZM31.1921 15.2696C31.3082 15.2581 31.4226 15.2335 31.5331 15.1963L31.5933 15.3711C31.4693 15.4131 31.3408 15.4409 31.2105 15.4538L31.1921 15.2696ZM31.8015 12.4379L31.8944 12.2778C32.0075 12.3434 32.1128 12.4213 32.2085 12.5103L32.082 12.6444C31.9966 12.5652 31.9025 12.496 31.8015 12.4379ZM31.8464 15.047C31.9453 14.9855 32.0368 14.9129 32.1192 14.8307L32.2507 14.9612C32.1582 15.0533 32.0555 15.1347 31.9446 15.2039L31.8464 15.047ZM32.3077 12.9099L32.462 12.8071C32.535 12.9154 32.5952 13.0316 32.6415 13.1535L32.4683 13.2192C32.4269 13.1104 32.3731 13.0066 32.3081 12.9099L32.3077 12.9099ZM32.3364 14.558C32.3979 14.4597 32.4479 14.3547 32.4854 14.2451L32.6613 14.3046C32.6191 14.4279 32.5629 14.5461 32.4939 14.6568L32.3364 14.558ZM32.5522 13.5558L32.7367 13.5321C32.7533 13.6613 32.7554 13.7919 32.743 13.9215L32.5585 13.904C32.5696 13.7881 32.5676 13.6713 32.5527 13.5558L32.5522 13.5558Z" fill="#1B1B43"/>
</svg>
