<svg width="663" height="245" viewBox="0 0 663 245" fill="none" xmlns="http://www.w3.org/2000/svg">
<line opacity="0.2" x1="148.114" y1="243" x2="148.114" y2="30" stroke="#12121D" stroke-width="1.17777" stroke-dasharray="4.71 7.07"/>
<line opacity="0.2" x1="485.708" y1="243" x2="485.708" y2="30" stroke="#12121D" stroke-width="1.17777" stroke-dasharray="4.71 7.07"/>
<line opacity="0.2" x1="81.1299" y1="243" x2="81.1299" y2="30" stroke="#12121D" stroke-width="1.17777" stroke-dasharray="4.71 7.07"/>
<line opacity="0.2" x1="350.403" y1="243" x2="350.403" y2="30" stroke="#12121D" stroke-width="1.17777" stroke-dasharray="4.71 7.07"/>
<line opacity="0.2" x1="14.1474" y1="243" x2="14.1474" y2="30" stroke="#12121D" stroke-width="1.17777" stroke-dasharray="4.71 7.07"/>
<line opacity="0.2" x1="216.436" y1="243" x2="216.436" y2="30" stroke="#12121D" stroke-width="1.17777" stroke-dasharray="4.71 7.07"/>
<line opacity="0.2" x1="283.419" y1="243" x2="283.419" y2="30" stroke="#12121D" stroke-width="1.17777" stroke-dasharray="4.71 7.07"/>
<line opacity="0.2" x1="552.692" y1="243" x2="552.692" y2="30" stroke="#12121D" stroke-width="1.17777" stroke-dasharray="4.71 7.07"/>
<line opacity="0.2" x1="417.386" y1="243" x2="417.386" y2="30" stroke="#12121D" stroke-width="1.17777" stroke-dasharray="4.71 7.07"/>
<line opacity="0.2" x1="619.675" y1="243" x2="619.675" y2="30" stroke="#12121D" stroke-width="1.17777" stroke-dasharray="4.71 7.07"/>
<path d="M4.00002 240.5C4.00002 240.5 70.9599 240.517 106.001 231.5C174.783 213.8 145.122 177.569 281 182C365.282 184.748 346.106 164.296 396 142C432.417 125.727 473.295 157.493 515.5 137.5C535.157 128.188 551.146 107.398 560.607 104.829C569.595 102.388 577.09 96.0606 584.584 89.7329C585.437 89.0129 586.29 88.2928 587.145 87.5784" stroke="#FF4F46" stroke-width="8" stroke-linecap="round"/>
<ellipse opacity="0.2" cx="417.5" cy="136" rx="28.5" ry="28" fill="#F39800"/>
<path d="M178.74 86.292C180.804 87.612 181.836 89.436 181.836 91.764C181.836 94.02 180.996 95.868 179.316 97.308C177.66 98.724 175.524 99.432 172.908 99.432C170.268 99.432 168.12 98.724 166.464 97.308C164.808 95.892 163.98 94.044 163.98 91.764C163.98 89.412 165.012 87.588 167.076 86.292C165.444 85.02 164.628 83.388 164.628 81.396C164.628 79.404 165.396 77.772 166.932 76.5C168.492 75.204 170.484 74.556 172.908 74.556C175.356 74.556 177.348 75.192 178.884 76.464C180.42 77.736 181.188 79.38 181.188 81.396C181.188 83.436 180.372 85.068 178.74 86.292ZM172.944 78.732C171.984 78.732 171.192 79.008 170.568 79.56C169.968 80.088 169.668 80.76 169.668 81.576C169.668 82.368 169.968 83.028 170.568 83.556C171.192 84.084 171.984 84.348 172.944 84.348C173.88 84.348 174.648 84.084 175.248 83.556C175.848 83.028 176.148 82.356 176.148 81.54C176.148 81.156 176.064 80.796 175.896 80.46C175.752 80.1 175.536 79.8 175.248 79.56C174.984 79.296 174.648 79.092 174.24 78.948C173.832 78.804 173.4 78.732 172.944 78.732ZM170.136 94.104C170.856 94.728 171.78 95.04 172.908 95.04C174.06 95.04 174.984 94.728 175.68 94.104C176.376 93.48 176.724 92.688 176.724 91.728C176.724 90.744 176.376 89.94 175.68 89.316C174.984 88.692 174.06 88.38 172.908 88.38C171.78 88.38 170.856 88.692 170.136 89.316C169.44 89.94 169.092 90.744 169.092 91.728C169.092 92.688 169.44 93.48 170.136 94.104ZM194.144 94.176H201.452V99H184.676V97.884C188.108 93.9 190.556 90.996 192.02 89.172C193.508 87.324 194.504 85.908 195.008 84.924C195.536 83.94 195.8 83.016 195.8 82.152C195.8 81.312 195.548 80.64 195.044 80.136C194.54 79.632 193.88 79.38 193.064 79.38C192.224 79.38 191.54 79.644 191.012 80.172C190.508 80.676 190.256 81.36 190.256 82.224V82.656H185.108V82.152C185.108 79.92 185.828 78.096 187.268 76.68C188.708 75.264 190.616 74.556 192.992 74.556C194.528 74.556 195.908 74.88 197.132 75.528C198.356 76.152 199.304 77.04 199.976 78.192C200.648 79.344 200.984 80.64 200.984 82.08C200.984 83.616 200.516 85.236 199.58 86.94C198.644 88.644 196.832 91.056 194.144 94.176ZM205.623 104.688V102.132C206.271 102.036 206.799 101.832 207.207 101.52C207.639 101.208 207.939 100.836 208.107 100.404C208.299 99.996 208.395 99.528 208.395 99H205.371V93.384H211.023V98.568C211.023 100.344 210.531 101.76 209.547 102.816C208.587 103.896 207.279 104.52 205.623 104.688ZM225.579 83.916C227.355 84.324 228.771 85.2 229.827 86.544C230.907 87.864 231.447 89.46 231.447 91.332C231.447 93.66 230.643 95.592 229.035 97.128C227.427 98.664 225.399 99.432 222.951 99.432C220.575 99.432 218.619 98.688 217.083 97.2C215.571 95.712 214.767 93.792 214.671 91.44H219.819C219.867 92.4 220.179 93.18 220.755 93.78C221.331 94.356 222.063 94.644 222.951 94.644C223.911 94.644 224.703 94.32 225.327 93.672C225.951 93.024 226.263 92.196 226.263 91.188C226.263 90.156 225.927 89.34 225.255 88.74C224.583 88.14 223.695 87.84 222.591 87.84H219.135V86.868L223.491 79.668H215.247V75.06H230.547V76.032L225.579 83.916ZM252.031 89.928V94.392H249.943V99H245.119V94.392H233.635V93.492L241.519 75.06H246.595L240.223 89.928H245.263L246.091 84.204H249.943V89.928H252.031ZM252.805 75.06H269.941V75.744L260.833 99H255.505L263.173 79.668H252.805V75.06Z" fill="#12121D"/>
<ellipse cx="417.5" cy="136" rx="14.5" ry="15" fill="#F39800"/>
<path d="M299.5 81L312 96H287L299.5 81Z" fill="#FF4F46"/>
<path d="M555.232 94.7641L531.348 112.751L539.707 111.598L527.139 126.509L544.562 116.894L531.759 139.564L552.487 119.008L550.011 135.663L572.023 103.445L555.232 94.7641Z" fill="#FFA121"/>
<path opacity="0.4" d="M557.535 96.1841L542.114 107.492L547.645 106.946L539.675 116.509L551.015 110.587L543.091 125.292L556.343 112.197L555.133 123.183L568.934 102.385L557.535 96.1841Z" fill="white"/>
<path d="M612.715 108.183C611.671 108.655 610.53 108.864 609.393 108.792C608.256 108.721 607.157 108.37 606.193 107.772L587.497 96.1658L596.549 86.4595L612.715 108.183Z" fill="#851712"/>
<path d="M612.714 108.183L595.81 91.881L619.327 67.4934C607.073 94.1096 621.088 99.4998 612.714 108.183Z" fill="#FF4F46"/>
<path d="M553.689 51.2628C553.255 52.3232 553.087 53.471 553.2 54.605C553.314 55.7391 553.704 56.8247 554.337 57.7662L566.614 76.027L575.985 66.6291L553.689 51.2628Z" fill="#851712"/>
<path d="M553.689 51.2626L570.591 67.5615L594.108 43.1739C567.954 56.3855 562.062 42.5797 553.689 51.2626Z" fill="#FF4F46"/>
<path d="M583.756 101.924C605.738 90.7297 622.165 70.7449 628.362 46.9069C628.476 46.4707 628.586 46.0329 628.693 45.5936L615.573 32.9416C615.138 33.0645 614.704 33.1907 614.272 33.3203C590.675 40.3782 571.297 57.5234 560.912 79.8947L557.889 86.4041L548.017 91.9492L572.177 115.247L577.36 105.181L583.756 101.924Z" fill="#6CA9FF"/>
<path d="M615.575 32.9398L622.132 39.263L628.695 45.5918L632.594 28.42L615.575 32.9398Z" fill="#FF4F46"/>
<path d="M557.882 86.4137L577.357 105.173L572.178 115.247L548.018 91.9492L557.882 86.4137Z" fill="#FF4F46"/>
<path d="M555.156 108.723C554.765 108.345 554.541 107.826 554.535 107.28C554.528 106.733 554.739 106.204 555.12 105.808L579.774 80.2421C580.156 79.8466 580.677 79.6171 581.224 79.604C581.77 79.5908 582.297 79.7951 582.688 80.172C583.079 80.5494 583.302 81.0683 583.309 81.6147C583.316 82.1612 583.105 82.6906 582.724 83.0866L558.07 108.653C557.688 109.048 557.167 109.278 556.621 109.291C556.074 109.304 555.547 109.1 555.156 108.723Z" fill="#1B1B43"/>
<path d="M607.359 64.1837C612.591 64.0577 616.78 59.7135 616.716 54.4807C616.652 49.2479 612.359 45.1081 607.127 45.234C601.895 45.36 597.706 49.7042 597.77 54.937C597.834 60.1698 602.127 64.3097 607.359 64.1837Z" fill="white"/>
<path d="M607.325 61.4177C611.029 61.3285 613.996 58.2526 613.95 54.5475C613.905 50.8424 610.865 47.9112 607.161 48.0004C603.457 48.0896 600.49 51.1654 600.536 54.8705C600.581 58.5756 603.621 61.5069 607.325 61.4177Z" fill="#B1D4FC"/>
<path d="M607.802 52.5522C608.375 52.1812 608.545 51.419 608.181 50.8498C607.816 50.2806 607.057 50.12 606.483 50.491C605.91 50.8621 605.74 51.6242 606.105 52.1934C606.469 52.7626 607.229 52.9232 607.802 52.5522Z" fill="white"/>
<path d="M589.543 73.0639L589.423 72.9484L589.824 72.5611L589.93 72.6627C590.143 72.8692 590.376 73.0541 590.626 73.2148L590.329 73.6763C590.047 73.4984 589.784 73.2933 589.543 73.0639ZM588.718 72.0274C588.518 71.6941 588.358 71.3384 588.241 70.9673L588.768 70.7947C588.873 71.1252 589.016 71.4419 589.194 71.7385L588.718 72.0274ZM591.37 74.1898L591.558 73.6666C591.885 73.7813 592.225 73.8579 592.571 73.8949L592.505 74.4446C592.117 74.4035 591.737 74.318 591.37 74.1898ZM588.018 69.8245C587.988 69.4356 588.002 69.044 588.061 68.6573L588.607 68.7331C588.555 69.0781 588.542 69.4274 588.569 69.7743L588.018 69.8245ZM593.671 74.4364L593.611 73.886C593.957 73.8442 594.297 73.7626 594.625 73.6429L594.809 74.1628C594.441 74.297 594.059 74.3888 593.671 74.4364ZM588.366 67.5264C588.511 67.1622 588.697 66.8153 588.921 66.4926L589.374 66.8045C589.177 67.0931 589.014 67.4029 588.887 67.7278L588.366 67.5264ZM595.863 73.6339L595.567 73.1744C595.86 72.983 596.13 72.7589 596.373 72.5066L596.77 72.8889C596.495 73.1718 596.19 73.4231 595.859 73.6378L595.863 73.6339ZM590.068 66.0126L589.696 65.606C589.987 65.341 590.306 65.1098 590.648 64.9167L590.919 65.4024C590.611 65.5739 590.325 65.7799 590.064 66.0164L590.068 66.0126ZM596.67 72.1624C596.887 71.8879 597.073 71.59 597.223 71.2745L597.723 71.5057C597.555 71.8604 597.347 72.195 597.103 72.5032L596.67 72.1624ZM591.872 64.996L591.723 64.4648C592.099 64.356 592.485 64.2895 592.875 64.2667L592.899 64.817C592.551 64.8379 592.207 64.8979 591.872 64.996ZM597.556 70.2896C597.63 69.9489 597.665 69.6012 597.66 69.2535L598.214 69.2392C598.218 69.6293 598.179 70.0192 598.096 70.4016L597.556 70.2896ZM593.938 64.8781L594.039 64.3324C594.423 64.3986 594.797 64.5086 595.155 64.6605L594.935 65.1703C594.615 65.035 594.281 64.9367 593.939 64.8772L593.938 64.8781ZM597.528 68.2211C597.446 67.8852 597.325 67.5604 597.168 67.2529L597.662 66.9959C597.838 67.3418 597.975 67.7072 598.068 68.085L597.528 68.2211ZM595.831 65.6845L596.164 65.2372C596.475 65.4681 596.76 65.7333 597.011 66.028L596.59 66.3903C596.365 66.1269 596.11 65.8898 595.832 65.6835L595.831 65.6845Z" fill="#1B1B43"/>
</svg>
