<svg width="56" height="56" viewBox="0 0 56 56" fill="none" xmlns="http://www.w3.org/2000/svg">
<path d="M27.9986 2.84046C31.2849 2.84046 34.5391 3.48775 37.5752 4.74537C40.6114 6.003 43.3701 7.84632 45.6939 10.1701C48.0177 12.4939 49.861 15.2526 51.1186 18.2888C52.3763 21.325 53.0236 24.5791 53.0236 27.8654C53.0236 31.1517 52.3763 34.4059 51.1186 37.4421C49.861 40.4782 48.0177 43.237 45.6939 45.5607C43.3701 47.8845 40.6114 49.7278 37.5752 50.9855C34.5391 52.2431 31.2849 52.8904 27.9986 52.8904C24.7123 52.8904 21.4581 52.2431 18.422 50.9855C15.3858 49.7278 12.6271 47.8845 10.3033 45.5607C7.97949 43.237 6.13616 40.4782 4.87854 37.4421C3.62092 34.4059 2.97363 31.1517 2.97363 27.8654C2.97363 24.5791 3.62092 21.325 4.87854 18.2888C6.13617 15.2526 7.97949 12.4939 10.3033 10.1701C12.6271 7.84632 15.3858 6.003 18.422 4.74537C21.4581 3.48775 24.7123 2.84046 27.9986 2.84046L27.9986 2.84046Z" stroke="#05050F" stroke-opacity="0.1" stroke-width="3"/>
<path d="M27.301 2.50958C33.0386 2.35225 38.6614 4.13522 43.26 7.57004C47.8585 11.0049 51.1637 15.8907 52.641 21.437C54.1182 26.9834 53.6811 32.8659 51.4002 38.133C49.1194 43.4001 45.1283 47.7437 40.0726 50.4611C35.0169 53.1785 29.1923 54.1108 23.541 53.1071C17.8897 52.1034 12.7423 49.2225 8.93145 44.9305C5.12062 40.6384 2.86926 35.1861 2.54159 29.4558C2.21391 23.7254 3.82909 18.0521 7.12582 13.3536" stroke="#E7332A" stroke-width="5" stroke-linecap="round"/>
<path d="M18.8961 31.6467C20.0741 31.6467 21.0748 32.033 21.8981 32.8057C22.7341 33.5657 23.1521 34.5537 23.1521 35.7697C23.1521 36.6184 22.9558 37.3784 22.5631 38.0497C22.1704 38.721 21.6194 39.2467 20.9101 39.6267C20.2134 39.994 19.4218 40.1777 18.5351 40.1777C17.1671 40.1777 16.0461 39.766 15.1721 38.9427C14.3108 38.1194 13.8801 37.0617 13.8801 35.7697C13.8801 34.6044 14.3361 33.23 15.2481 31.6467L17.7751 27.2387H20.0171C18.5604 29.8227 17.6864 31.387 17.3951 31.9317C17.8891 31.7417 18.3894 31.6467 18.8961 31.6467ZM18.5161 38.2397C19.2634 38.2397 19.8778 38.0117 20.3591 37.5557C20.8404 37.087 21.0811 36.4917 21.0811 35.7697C21.0811 35.035 20.8404 34.4397 20.3591 33.9837C19.8778 33.515 19.2634 33.2807 18.5161 33.2807C18.0348 33.2807 17.5978 33.3884 17.2051 33.6037C16.8124 33.819 16.5021 34.1167 16.2741 34.4967C16.0588 34.864 15.9511 35.2884 15.9511 35.7697C15.9511 36.4917 16.1918 37.087 16.6731 37.5557C17.1671 38.0117 17.7814 38.2397 18.5161 38.2397ZM28.784 31.8557C30.076 31.8557 31.1337 32.2484 31.957 33.0337C32.793 33.819 33.211 34.8007 33.211 35.9787C33.211 37.182 32.7994 38.1827 31.976 38.9807C31.1527 39.7787 30.1267 40.1777 28.898 40.1777C27.682 40.1777 26.6687 39.7977 25.858 39.0377C25.06 38.2777 24.642 37.3087 24.604 36.1307H26.656C26.6814 36.7514 26.903 37.258 27.321 37.6507C27.739 38.0434 28.2647 38.2397 28.898 38.2397C29.544 38.2397 30.076 38.0244 30.494 37.5937C30.9247 37.163 31.14 36.6247 31.14 35.9787C31.14 35.7634 31.1084 35.5544 31.045 35.3517C30.9944 35.149 30.9184 34.9654 30.817 34.8007C30.7157 34.6234 30.589 34.465 30.437 34.3257C30.2977 34.1864 30.1394 34.066 29.962 33.9647C29.7847 33.8634 29.5884 33.7874 29.373 33.7367C29.1704 33.686 28.9487 33.6607 28.708 33.6607H25.364L25.117 33.3757L25.801 27.3147H32.337V29.1767H27.454L27.169 31.8557H28.784Z" fill="#12121D"/>
<path d="M35.9414 28.8951C35.4628 28.8951 35.0718 28.7468 34.7685 28.4502C34.4651 28.1469 34.3134 27.7626 34.3134 27.2975C34.3134 26.8257 34.4651 26.4414 34.7685 26.1448C35.0718 25.8482 35.4594 25.7 35.9312 25.7C36.4098 25.7 36.7974 25.8482 37.094 26.1448C37.3974 26.4414 37.549 26.8257 37.549 27.2975C37.549 27.7626 37.3974 28.1469 37.094 28.4502C36.7974 28.7468 36.4132 28.8951 35.9414 28.8951ZM35.4156 32.9902L39.7128 25.8617H40.6229L36.3256 32.9902H35.4156ZM35.2942 27.9548C35.4628 28.1233 35.6751 28.2075 35.9312 28.2075C36.1941 28.2075 36.4098 28.1233 36.5784 27.9548C36.7536 27.7795 36.8413 27.5604 36.8413 27.2975C36.8413 27.0346 36.7536 26.8189 36.5784 26.6504C36.4098 26.4751 36.1941 26.3875 35.9312 26.3875C35.6751 26.3875 35.4628 26.4751 35.2942 26.6504C35.1257 26.8189 35.0415 27.0346 35.0415 27.2975C35.0415 27.5604 35.1257 27.7795 35.2942 27.9548ZM41.4014 32.5655C41.1048 32.8553 40.7206 33.0003 40.2487 33.0003C39.7769 33.0003 39.3893 32.8553 39.086 32.5655C38.7894 32.2689 38.6411 31.888 38.6411 31.4229C38.6411 30.9511 38.7894 30.5702 39.086 30.2803C39.3893 29.9837 39.7769 29.8354 40.2487 29.8354C40.7206 29.8354 41.1048 29.9837 41.4014 30.2803C41.7048 30.5702 41.8564 30.9511 41.8564 31.4229C41.8564 31.888 41.7048 32.2689 41.4014 32.5655ZM39.6016 32.0599C39.7701 32.2284 39.9859 32.3127 40.2487 32.3127C40.5116 32.3127 40.724 32.2284 40.8858 32.0599C41.0543 31.8914 41.1385 31.6757 41.1385 31.4128C41.1385 31.2443 41.1015 31.0926 41.0273 30.9578C40.9532 30.823 40.8453 30.7185 40.7037 30.6443C40.5689 30.5635 40.4173 30.523 40.2487 30.523C39.9859 30.523 39.7701 30.6073 39.6016 30.7758C39.4398 30.9443 39.359 31.16 39.359 31.4229C39.359 31.6791 39.4398 31.8914 39.6016 32.0599Z" fill="#12121D"/>
<path d="M23.5776 18.4198H25.5424V22.8407H23.5776V18.4198ZM30.4545 16.455H32.4193V22.8407H30.4545V16.455ZM27.0161 13.5078H28.9809V22.8407H27.0161V13.5078Z" fill="#E7332A"/>
</svg>
